<svg width="28" height="28" viewBox="0 0 28 28" fill="none" xmlns="http://www.w3.org/2000/svg">
<path d="M11.6667 3.20831C13.2651 3.20811 14.8309 3.66085 16.1826 4.51406C17.5343 5.36728 18.6165 6.58604 19.3039 8.02912C19.9913 9.4722 20.2558 11.0805 20.0666 12.6677C19.8774 14.255 19.2423 15.7561 18.235 16.9971L23.9517 22.7138C24.1086 22.8697 24.2007 23.0793 24.2093 23.3004C24.2179 23.5215 24.1425 23.7377 23.9982 23.9054C23.8538 24.073 23.6514 24.1798 23.4314 24.2042C23.2115 24.2286 22.9906 24.1688 22.813 24.0368L22.715 23.9516L16.9972 18.235C15.9459 19.088 14.7052 19.6761 13.3794 19.95C12.0535 20.224 10.6814 20.1756 9.3781 19.8091C8.07484 19.4426 6.8786 18.7686 5.88991 17.8438C4.90121 16.919 4.14895 15.7704 3.69633 14.4945C3.24372 13.2186 3.10399 11.8526 3.28887 10.5115C3.47376 9.17039 3.97786 7.89324 4.75882 6.78738C5.53978 5.68153 6.57477 4.77929 7.77682 4.15649C8.97887 3.53369 10.3129 3.20852 11.6667 3.20831ZM11.6667 4.95831C10.7857 4.95831 9.91339 5.13183 9.09949 5.46895C8.2856 5.80608 7.54608 6.30021 6.92315 6.92314C6.30023 7.54606 5.8061 8.28559 5.46897 9.09948C5.13185 9.91337 4.95833 10.7857 4.95833 11.6666C4.95833 12.5476 5.13185 13.4199 5.46897 14.2338C5.8061 15.0477 6.30023 15.7872 6.92315 16.4102C7.54608 17.0331 8.2856 17.5272 9.09949 17.8643C9.91339 18.2015 10.7857 18.375 11.6667 18.375C13.4458 18.375 15.1521 17.6682 16.4102 16.4102C17.6682 15.1521 18.375 13.4458 18.375 11.6666C18.375 9.88749 17.6682 8.18119 16.4102 6.92314C15.1521 5.66508 13.4458 4.95831 11.6667 4.95831Z" fill="#EAECF0"/>
</svg>
