<svg width="25" height="24" viewBox="0 0 25 24" fill="none" xmlns="http://www.w3.org/2000/svg">
<path d="M6.748 16.002C7.714 16.002 8.498 16.786 8.498 17.752V20.25C8.498 20.7141 8.31363 21.1592 7.98544 21.4874C7.65725 21.8156 7.21213 22 6.748 22H4.25C3.78587 22 3.34075 21.8156 3.01256 21.4874C2.68437 21.1592 2.5 20.7141 2.5 20.25V17.752C2.5 16.786 3.284 16.002 4.25 16.002H6.748ZM10.248 18H21.753C21.943 18.0001 22.1259 18.0722 22.2648 18.202C22.4036 18.3317 22.4881 18.5093 22.501 18.6989C22.514 18.8885 22.4545 19.0759 22.3346 19.2233C22.2147 19.3707 22.0432 19.4671 21.855 19.493L21.753 19.5H10.248C10.058 19.4999 9.87506 19.4278 9.73621 19.298C9.59736 19.1683 9.51293 18.9907 9.49997 18.8011C9.48702 18.6115 9.54651 18.4241 9.66643 18.2767C9.78635 18.1293 9.95775 18.0329 10.146 18.007L10.248 18ZM6.748 9.001C7.714 9.001 8.498 9.785 8.498 10.751V13.249C8.498 13.7131 8.31363 14.1582 7.98544 14.4864C7.65725 14.8146 7.21213 14.999 6.748 14.999H4.25C3.78587 14.999 3.34075 14.8146 3.01256 14.4864C2.68437 14.1582 2.5 13.7131 2.5 13.249V10.75C2.5 9.784 3.284 9 4.25 9H6.748V9.001ZM10.248 11H21.753C21.943 11.0001 22.1259 11.0722 22.2648 11.202C22.4036 11.3317 22.4881 11.5093 22.501 11.6989C22.514 11.8885 22.4545 12.0759 22.3346 12.2233C22.2147 12.3707 22.0432 12.4671 21.855 12.493L21.753 12.5H10.248C10.058 12.4999 9.87506 12.4278 9.73621 12.298C9.59736 12.1683 9.51293 11.9907 9.49997 11.8011C9.48702 11.6115 9.54651 11.4241 9.66643 11.2767C9.78635 11.1293 9.95775 11.0329 10.146 11.007L10.248 11ZM6.748 2C7.714 2 8.498 2.784 8.498 3.75V6.248C8.498 6.71213 8.31363 7.15725 7.98544 7.48544C7.65725 7.81363 7.21213 7.998 6.748 7.998H4.25C3.78587 7.998 3.34075 7.81363 3.01256 7.48544C2.68437 7.15725 2.5 6.71213 2.5 6.248V3.75C2.5 2.784 3.284 2 4.25 2H6.748ZM10.248 4H21.753C21.943 4.00006 22.1259 4.07224 22.2648 4.20197C22.4036 4.3317 22.4881 4.5093 22.501 4.69888C22.514 4.88846 22.4545 5.07589 22.3346 5.2233C22.2147 5.37071 22.0432 5.4671 21.855 5.493L21.753 5.5H10.248C10.058 5.49994 9.87506 5.42776 9.73621 5.29803C9.59736 5.1683 9.51293 4.9907 9.49997 4.80112C9.48702 4.61154 9.54651 4.42411 9.66643 4.2767C9.78635 4.12929 9.95775 4.0329 10.146 4.007L10.248 4Z" fill="#F63D68"/>
</svg>
