<svg width="16" height="16" viewBox="0 0 16 16" fill="none" xmlns="http://www.w3.org/2000/svg">
<path d="M7.99998 1.33334C4.31798 1.33334 1.33331 4.31801 1.33331 8.00001C1.33331 11.682 4.31798 14.6667 7.99998 14.6667C11.682 14.6667 14.6666 11.682 14.6666 8.00001C14.6666 4.31801 11.682 1.33334 7.99998 1.33334ZM5.49598 2.91534L7.50131 4.11534V5.57734L5.64065 6.92934L4.27798 6.45801L3.88665 4.10201C4.34875 3.61446 4.89363 3.21269 5.49598 2.91534ZM2.41398 8.95934L3.96531 7.40801L5.32531 7.87801L6.04665 10.1L5.39998 11.15L3.20465 11.0207C2.80768 10.3925 2.53896 9.69189 2.41398 8.95934ZM7.01998 13.582L6.23065 11.7093L6.87265 10.6647H9.12065L9.72865 11.7187L9.03531 13.572C8.36946 13.695 7.68702 13.6983 7.01998 13.582ZM12.5946 11.3173L10.5786 11.1907L9.95331 10.108L10.678 7.87801L12.02 7.41401L13.5613 9.09401C13.4041 9.89644 13.0742 10.6551 12.5946 11.3173ZM12.1146 4.10401L11.722 6.45934L10.362 6.92934L8.50131 5.57734V4.11468L10.5026 2.91468C11.1061 3.21258 11.6519 3.61528 12.1146 4.10401Z" fill="#5D5C64"/>
</svg>
