<svg width="28" height="28" viewBox="0 0 28 28" fill="none" xmlns="http://www.w3.org/2000/svg">
<path d="M14 2.32868C16.2711 2.3257 18.4541 3.207 20.0865 4.78587C21.7189 6.36474 22.6726 8.51713 22.7453 10.787L22.75 11.0787V15.8585L24.36 19.5405C24.4572 19.7624 24.4975 20.0049 24.4773 20.2463C24.4572 20.4876 24.3772 20.7202 24.2446 20.9228C24.112 21.1255 23.9309 21.2919 23.7179 21.407C23.5048 21.5222 23.2664 21.5824 23.0242 21.5822L17.5 21.5857C17.5012 22.4968 17.147 23.3725 16.5127 24.0267C15.8784 24.6808 15.0141 25.0618 14.1033 25.0887C13.1925 25.1156 12.3072 24.7863 11.6354 24.1707C10.9636 23.5551 10.5584 22.7018 10.5058 21.7922L10.5 21.5822H4.98751C4.74579 21.5819 4.50792 21.5216 4.29527 21.4066C4.08262 21.2917 3.90185 21.1258 3.76918 20.9237C3.63652 20.7216 3.55612 20.4898 3.5352 20.249C3.51428 20.0082 3.5535 19.7659 3.64934 19.544L5.25001 15.8597V11.0787C5.25001 6.23118 9.16068 2.32868 14 2.32868ZM15.75 21.5833L12.25 21.5857C12.2499 22.0352 12.4228 22.4675 12.7329 22.793C13.0429 23.1185 13.4663 23.3122 13.9153 23.3339C14.3643 23.3557 14.8045 23.2038 15.1445 22.9098C15.4846 22.6158 15.6985 22.2023 15.7418 21.7548L15.75 21.5833ZM14 4.07868C10.1267 4.07868 7.00001 7.19835 7.00001 11.0787V16.2237L5.43201 19.8333H22.5785L21 16.2248V11.0938L20.9965 10.8313C20.9359 9.01747 20.1718 7.29837 18.8659 6.038C17.56 4.77764 15.8149 4.07494 14 4.07868Z" fill="#EAECF0"/>
</svg>
