<svg width="20" height="20" viewBox="0 0 20 20" fill="none" xmlns="http://www.w3.org/2000/svg">
<path d="M14.1667 2.50165C14.5789 2.50172 14.9847 2.6038 15.3479 2.79877C15.7111 2.99374 16.0204 3.27554 16.2482 3.61907C16.4761 3.96259 16.6154 4.35715 16.6537 4.76758C16.6921 5.17801 16.6283 5.59155 16.468 5.97134C16.3077 6.35112 16.056 6.68535 15.7352 6.94422C15.4144 7.20309 15.0345 7.37856 14.6294 7.45499C14.2244 7.53143 13.8067 7.50644 13.4136 7.38226C13.0206 7.25809 12.6643 7.03858 12.3767 6.74331L7.82918 9.34331C7.94629 9.77354 7.94629 10.2273 7.82918 10.6575L12.3775 13.2566C12.802 12.8214 13.3706 12.5559 13.9768 12.5098C14.583 12.4638 15.1852 12.6404 15.6706 13.0065C16.1559 13.3726 16.4911 13.9031 16.6134 14.4987C16.7356 15.0942 16.6365 15.7139 16.3346 16.2416C16.0327 16.7693 15.5488 17.1688 14.9734 17.3653C14.3981 17.5618 13.7709 17.5417 13.2093 17.3089C12.6476 17.076 12.1902 16.6464 11.9227 16.1005C11.6551 15.5546 11.5958 14.9298 11.7558 14.3433L7.20835 11.7433C6.8616 12.0992 6.4166 12.3437 5.93022 12.4454C5.44383 12.5471 4.93816 12.5015 4.47785 12.3143C4.01753 12.1272 3.62348 11.807 3.34607 11.3948C3.06865 10.9825 2.92047 10.4969 2.92047 9.99998C2.92047 9.50307 3.06865 9.01745 3.34607 8.6052C3.62348 8.19294 4.01753 7.87277 4.47785 7.68562C4.93816 7.49847 5.44383 7.45283 5.93022 7.55455C6.4166 7.65627 6.8616 7.90072 7.20835 8.25665L11.7558 5.65665C11.6554 5.28611 11.6416 4.89741 11.7156 4.52069C11.7896 4.14397 11.9494 3.78935 12.1825 3.48432C12.4156 3.1793 12.7159 2.93207 13.06 2.7618C13.4041 2.59153 13.7828 2.50196 14.1667 2.50165Z" fill="#DADADA"/>
</svg>
